<?xml version="1.0" encoding="UTF-8"?>
<svg id="Layer_1" data-name="Layer 1" xmlns="http://www.w3.org/2000/svg" viewBox="55 448 975 185">
  <defs>
    <style>
      .cls-1 {
        fill: #231f20;
      }
    </style>
  </defs>
  <g>
    <polygon class="cls-1" points="245.11 539.98 162 622.66 101.05 622.66 184.16 539.98 200.41 539.98 117.3 457.34 162 457.34 245.11 539.98"/>
    <polygon class="cls-1" points="162.81 539.98 119.2 583.38 87.2 583.38 130.81 539.98 110.79 539.98 67.15 496.59 119.2 496.59 162.81 539.98"/>
  </g>
  <g>
    <path class="cls-1" d="M283.82,498.86h33.33v82.28h-33.33v-82.28Z"/>
    <path class="cls-1" d="M816.16,498.86h33.33v82.28h-33.33v-82.28Z"/>
    <path class="cls-1" d="M365,498.86l75.94,47.25v-47.25h33.33v82.28h-33.82l-75.94-47.37v47.37h-33.33v-82.28h33.82Z"/>
    <path class="cls-1" d="M488.29,498.86h111.94v22.58h-78.61v10.03h74.67v22.59h-74.67v27.09h-33.33v-82.28Z"/>
    <path class="cls-1" d="M613.04,498.86h33.33v82.28h-33.33v-82.28Z"/>
    <path class="cls-1" d="M694.23,498.86l75.94,47.25v-47.25h33.33v82.28h-33.82l-75.94-47.37v47.37h-33.33v-82.28h33.82Z"/>
    <path class="cls-1" d="M897.97,581.14h-35.89l38.46-82.28h73.74l38.58,82.28h-35.89l-6.71-15.87h-65.68l-6.59,15.87ZM913.96,543.05h46.88l-9.03-21.49h-28.81l-9.03,21.49Z"/>
  </g>
</svg>
